<svg width="1200" height="800" viewBox="0 0 1200 800" fill="none" xmlns="http://www.w3.org/2000/svg">
  <rect width="1200" height="800" fill="#F8FAFC"/>
  <circle cx="600" cy="300" r="170" fill="#E2E8F0" stroke="#334155" stroke-width="12"/>
  <circle cx="600" cy="300" r="38" fill="#334155"/>

  <path d="M600 300 C640 220, 760 220, 810 280 C760 340, 640 355, 600 300Z" fill="#94A3B8" stroke="#334155" stroke-width="8"/>
  <path d="M600 300 C520 260, 520 140, 580 90 C640 140, 655 260, 600 300Z" fill="#94A3B8" stroke="#334155" stroke-width="8"/>
  <path d="M600 300 C560 380, 440 380, 390 320 C440 260, 560 245, 600 300Z" fill="#94A3B8" stroke="#334155" stroke-width="8"/>

  <rect x="584" y="470" width="32" height="130" rx="12" fill="#334155"/>
  <rect x="500" y="595" width="200" height="28" rx="14" fill="#475569"/>
  <rect x="460" y="620" width="280" height="30" rx="15" fill="#1E293B"/>

  <rect x="70" y="80" width="450" height="78" rx="14" fill="#0F172A"/>
  <text x="95" y="130" font-family="Arial, Helvetica, sans-serif" font-size="34" fill="#F8FAFC">Ventilador Ventisol 60cm</text>

  <rect x="70" y="170" width="310" height="58" rx="12" fill="#16A34A"/>
  <text x="95" y="208" font-family="Arial, Helvetica, sans-serif" font-size="30" fill="#FFFFFF">Oferta Mercado Livre</text>
</svg>
