<svg width="420" height="120" viewBox="0 0 420 120" fill="none" xmlns="http://www.w3.org/2000/svg">
  <rect x="1" y="1" width="418" height="118" rx="20" fill="#FFFFFF" stroke="#E2E8F0" stroke-width="2"/>
  <circle cx="58" cy="44" r="20" fill="#8D5524"/>
  <path d="M38 44C38 33 46 24 58 24C70 24 78 33 78 44" fill="#1E293B"/>
  <path d="M24 92C24 73 39 60 58 60C77 60 92 73 92 92" fill="#334155"/>
  <circle cx="53" cy="44" r="2.6" fill="#0F172A"/>
  <circle cx="63" cy="44" r="2.6" fill="#0F172A"/>
  <path d="M52 52C55 55 61 55 64 52" stroke="#0F172A" stroke-width="2" stroke-linecap="round"/>

  <text x="112" y="42" font-family="Arial, Helvetica, sans-serif" font-size="14" font-weight="700" fill="#334155">Lazaro Tadeu de Olievira Silva</text>
  <text x="112" y="74" font-family="Arial, Helvetica, sans-serif" font-size="30" font-weight="800" fill="#0F172A">Radar Brasil</text>
  <rect x="112" y="84" width="185" height="22" rx="11" fill="#FFE600"/>
  <text x="124" y="99" font-family="Arial, Helvetica, sans-serif" font-size="12" font-weight="700" fill="#2D3277">Ofertas e cupons parceiros</text>
</svg>
