<svg width="220" height="120" viewBox="0 0 220 120" fill="none" xmlns="http://www.w3.org/2000/svg">
  <defs>
    <linearGradient id="halo" x1="30" y1="8" x2="130" y2="112" gradientUnits="userSpaceOnUse">
      <stop stop-color="#FDE68A"/>
      <stop offset="0.5" stop-color="#F59E0B"/>
      <stop offset="1" stop-color="#FB923C"/>
    </linearGradient>
    <linearGradient id="bulb" x1="58" y1="26" x2="58" y2="84" gradientUnits="userSpaceOnUse">
      <stop stop-color="#FEF08A"/>
      <stop offset="1" stop-color="#F59E0B"/>
    </linearGradient>
    <path id="arcTop" d="M 6 58 A 52 52 0 0 1 110 58"/>
    <path id="arcBottom" d="M 110 58 A 52 52 0 0 1 6 58"/>
  </defs>

  <g transform="translate(20,2)">
  <circle cx="58" cy="56" r="44" fill="url(#halo)"/>
  <circle cx="58" cy="56" r="38" fill="#FFF7ED"/>

  <path d="M58 28C46.8 28 37.8 37 37.8 48.2C37.8 56.3 42.5 63.2 49.3 66.4V71.5C49.3 74.5 51.8 77 54.8 77H61.2C64.2 77 66.7 74.5 66.7 71.5V66.4C73.5 63.2 78.2 56.3 78.2 48.2C78.2 37 69.2 28 58 28Z" fill="url(#bulb)" stroke="#B45309" stroke-width="2"/>
  <rect x="50.5" y="77.5" width="15" height="4.5" rx="2.2" fill="#92400E"/>
  <rect x="51" y="83" width="14" height="4.5" rx="2.2" fill="#78350F"/>
  <path d="M52 48.5C52 45 54.7 42.3 58.2 42.3" stroke="#FFFBEB" stroke-width="2" stroke-linecap="round"/>

  <path d="M58 36V31M44.5 42.5L40.8 38.8M71.5 42.5L75.2 38.8" stroke="#F59E0B" stroke-width="2" stroke-linecap="round"/>

  <circle cx="58" cy="13" r="11" fill="#FFF7ED" stroke="#F59E0B" stroke-width="1.5"/>
  <path d="M58 7C60.5 7 62.5 9 62.5 11.5C62.5 13.2 61.5 14.6 60.1 15.3V17H55.9V15.3C54.5 14.6 53.5 13.2 53.5 11.5C53.5 9 55.5 7 58 7Z" fill="#FDE047"/>
  <rect x="56.7" y="17.2" width="2.6" height="2.8" rx="1" fill="#F59E0B"/>

  <circle cx="99" cy="36" r="11" fill="#FFF7ED" stroke="#FB923C" stroke-width="1.5"/>
  <path d="M95 42L101.5 35.2L98.7 34L103.2 29.5L101 33.8L105 35.3L98.6 42L100 39L95 42Z" fill="#F97316"/>

  <circle cx="99" cy="76" r="11" fill="#FFF7ED" stroke="#F59E0B" stroke-width="1.5"/>
  <circle cx="99" cy="76" r="6.2" fill="#FB923C"/>
  <path d="M93 76H105M99 70.6C97.8 72.2 97.8 79.8 99 81.4" stroke="#FFEDD5" stroke-width="1.1" stroke-linecap="round"/>

  <circle cx="18" cy="78" r="11" fill="#FFF7ED" stroke="#F59E0B" stroke-width="1.5"/>
  <text x="13" y="82" font-family="Arial, Helvetica, sans-serif" font-size="12" font-weight="800" fill="#EA580C">$</text>
  </g>

  <g transform="translate(20,2)">
    <text font-family="Arial, Helvetica, sans-serif" font-size="10.5" font-weight="800" fill="#9A3412" letter-spacing="2">
      <textPath href="#arcTop" startOffset="50%" text-anchor="middle">LT PROMO</textPath>
    </text>
    <text font-family="Arial, Helvetica, sans-serif" font-size="10.5" font-weight="800" fill="#9A3412" letter-spacing="2">
      <textPath href="#arcBottom" startOffset="50%" text-anchor="middle">RADAR</textPath>
    </text>
  </g>

  <text x="142" y="56" font-family="Arial, Helvetica, sans-serif" font-size="22" font-weight="900" fill="#9A3412">LT Promo</text>
  <text x="142" y="80" font-family="Arial, Helvetica, sans-serif" font-size="22" font-weight="900" fill="#C2410C">Radar</text>
</svg>
